<svg width="250" height="32" viewBox="0 0 250 32" fill="none" xmlns="http://www.w3.org/2000/svg">
<path d="M0 30.8397V0.467267H8.75065V24.0855H20.2199V30.8397H0Z" fill="#11456C"/>
<path d="M23.3292 30.8397V0.467267H32.1223V30.8397H23.3292Z" fill="#11456C"/>
<path d="M51.0918 31.3494C45.9094 31.3494 41.973 29.9618 39.2827 27.1865C36.5924 24.4112 35.2472 20.6306 35.2472 15.8446V15.5048C35.2472 10.8888 36.7056 7.15061 39.6225 4.29037C42.5394 1.43012 46.2492 0 50.752 0C54.83 0 58.115 0.977014 60.6071 2.93104C63.0992 4.85675 64.5151 7.77363 64.855 11.6817H55.8919C55.5521 8.48162 53.8529 6.88158 50.7945 6.88158C48.8121 6.88158 47.2546 7.63204 46.1218 9.13296C44.989 10.6339 44.4226 12.7437 44.4226 15.4623V15.8021C44.4226 18.5491 44.989 20.6731 46.1218 22.174C47.2546 23.6466 48.8546 24.3829 50.9219 24.3829C52.4795 24.3829 53.7538 23.9722 54.745 23.151C55.7645 22.3014 56.3733 21.0554 56.5716 19.4128H65.2373C64.9541 23.2643 63.5381 26.2236 60.9894 28.2909C58.4407 30.3299 55.1415 31.3494 51.0918 31.3494Z" fill="#11456C"/>
<path d="M67.777 30.8397V0.467267H76.5277V12.064H86.5102V0.467267H95.2184V30.8397H86.5102V18.8606H76.5277V30.8397H67.777Z" fill="#11456C"/>
<path d="M105.633 30.8397V7.17893H97.7748V0.467267H122.243V7.17893H114.384V30.8397H105.633Z" fill="#11456C"/>
<path d="M123.45 31.2645L128.242 0.898696H138.26C141.578 0.898696 144.164 1.63157 146.017 3.09731C147.87 4.56305 148.797 6.6303 148.797 9.29906C148.797 11.7189 148.25 13.7654 147.158 15.4386C146.066 17.0979 144.607 18.3148 142.781 19.0891C140.97 19.8496 138.868 20.2299 136.476 20.2299H132.058L130.316 31.2645H123.45ZM132.784 15.4178H136.352C138.26 15.4178 139.712 14.9477 140.707 14.0074C141.717 13.0533 142.221 11.6844 142.221 9.90057C142.221 7.35626 140.652 6.08411 137.513 6.08411H134.277L132.784 15.4178Z" fill="#A4D8FF"/>
<path d="M148.767 31.2645L153.558 0.898696H160.444L156.483 25.8716H168.845L167.994 31.2645H148.767Z" fill="#A4D8FF"/>
<path d="M169.001 31.2645L183.769 0.898696H192.73L197.791 31.2645H190.739L189.722 24.5027H178.729L175.618 31.2645H169.001ZM181.011 19.6284H188.996L187.088 6.49894L181.011 19.6284Z" fill="#A4D8FF"/>
<path d="M198.715 21.744H205.249C205.276 22.4216 205.401 23.0508 205.622 23.6315C205.843 24.1985 206.175 24.7239 206.618 25.2079C207.074 25.678 207.689 26.0514 208.464 26.3279C209.238 26.5907 210.137 26.722 211.16 26.722C211.188 26.722 211.215 26.722 211.243 26.722C212.833 26.7082 214.071 26.3418 214.956 25.6227C215.841 24.876 216.29 23.8528 216.304 22.553C216.304 21.5712 215.938 20.7968 215.205 20.2299C214.472 19.663 213.137 19.1375 211.202 18.6535C207.731 17.8515 205.256 16.8075 203.776 15.5216C202.296 14.2217 201.557 12.3619 201.557 9.94205C201.557 7.23181 202.594 4.97789 204.668 3.18028C206.742 1.36884 209.528 0.463122 213.027 0.463122C216.456 0.463122 219.125 1.23056 221.033 2.76544C222.941 4.2865 223.895 6.54734 223.895 9.54796H217.611C217.417 6.86538 215.792 5.52408 212.736 5.52408C211.229 5.52408 210.095 5.86286 209.335 6.54042C208.574 7.20416 208.194 8.09605 208.194 9.21609C208.194 10.1011 208.547 10.7994 209.252 11.311C209.971 11.8226 211.333 12.3273 213.338 12.8251C216.753 13.6686 219.229 14.7403 220.763 16.0401C222.298 17.3399 223.066 19.1859 223.066 21.5781C223.066 23.5555 222.596 25.3047 221.655 26.8257C220.729 28.3468 219.346 29.5429 217.507 30.4141C215.668 31.2852 213.483 31.7277 210.953 31.7415C207.039 31.7415 204.018 30.8289 201.889 29.0036C199.773 27.206 198.715 24.8276 198.715 21.8685C198.715 21.827 198.715 21.7855 198.715 21.744Z" fill="#A4D8FF"/>
<path d="M225.795 6.25004L226.686 0.898696H250L249.108 6.25004H240.915L236.995 31.2645H230.067L233.987 6.25004H225.795Z" fill="#A4D8FF"/>
</svg>
